PathFileType	4	(X/Y/Z)	46_2_38_p0_0-232_filt_butterworth.trc
DataRate	CameraRate	NumFrames	NumMarkers	Units	OrigDataRate	OrigDataStartFrame	OrigNumFrames
59.0	59.0	6	27	m	59.0	116	232
Frame#	Time	RHip			RKnee			RAnkle			RBigToe			RSmallToe			RHeel			LHip			LKnee			LAnkle			LBigToe			LSmallToe			LHeel			Neck			Head			Nose			RShoulder			RElbow			RWrist			RThumb			RIndex			RPinky			LShoulder			LElbow			LWrist			LThumb			LIndex			LPinky			
		X1	Y1	Z1	X2	Y2	Z2	X3	Y3	Z3	X4	Y4	Z4	X5	Y5	Z5	X6	Y6	Z6	X7	Y7	Z7	X8	Y8	Z8	X9	Y9	Z9	X10	Y10	Z10	X11	Y11	Z11	X12	Y12	Z12	X13	Y13	Z13	X14	Y14	Z14	X15	Y15	Z15	X16	Y16	Z16	X17	Y17	Z17	X18	Y18	Z18	X19	Y19	Z19	X20	Y20	Z20	X21	Y21	Z21	X22	Y22	Z22	X23	Y23	Z23	X24	Y24	Z24	X25	Y25	Z25	X26	Y26	Z26	X27	Y27	Z27	
116	1.9661016949152543	0.42486400583894046	0.37728404452654235	0.6486731401478251	0.37918406218460105	0.4646976083126022	1.0833257021154568	0.3544747765586282	0.529294003820955	1.487376093697077	0.3539882516193063	0.3397337182240029	1.50799149148028	0.423980197338781	0.3621847094033582	1.5076925684164018	0.32060007524434586	0.6285968316952684	1.5654504019480755	0.23211287980205564	0.36857158641080534	0.654008689104707	0.22815506373628452	0.39071000337233047	1.0344590190638578	0.17647563228876192	0.5051622086404405	1.4679307733587124	0.19746704811356425	0.28905916427242234	1.469185171812294	0.1443061397023352	0.3419171168150238	1.4852988241051883	0.18129672590236245	0.5859660668892377	1.5667360899545695	0.3321044417779782	0.3537778253623788	0.09088868244422851	0.368147847956511	0.2937689636378887	-0.13638394612785282	0.35644791011397536	0.2522703741958491	-0.01758756262979498	0.4865585402397213	0.33272068980209685	0.2136790935327443	0.5141759255489858	0.32305882355948395	0.45715253733724526	0.4073546102851059	0.24006338876275807	0.6348122639731102	0.30957029514818624	0.2540367426664058	0.6972803777833444	0.30260848585266664	0.2576575080034602	0.7177020016164117	0.3357860277847004	0.20285045469813393	0.7222708292125232	0.1874112775679148	0.34595281231068437	0.18060922138794291	0.15143754625282418	0.3017147891617201	0.4469650950652498	0.2837627094447976	0.21313315357069135	0.6107011466744449	0.3612392828968309	0.18010887795195907	0.6528153589583975	0.3665574132267342	0.1884176751947157	0.6944641797042469	0.3506154202758405	0.19921830047857936	0.7191318621968751
117	1.9830508474576272	0.42534334865732104	0.37719202405452246	0.6508503247864955	0.3785610360824911	0.4613603634658222	1.0851406991422872	0.35424517699050234	0.529219393808832	1.4883876845825919	0.3539739600342679	0.3397188489528966	1.508051427186319	0.4239412393499621	0.3621922081613251	1.5077308554897162	0.32063847367933485	0.6283911929496124	1.5654395114590955	0.23242947333576297	0.36873984518641467	0.6558472472708256	0.22822200944507082	0.3903883130730411	1.035395112676068	0.17647624839027815	0.5051212332143087	1.4678960101616527	0.197584667527592	0.2885833964641419	1.4702445910794268	0.14428941907338416	0.3419495392866147	1.4853150184381365	0.18135232787333705	0.5860295650749779	1.5675010127615383	0.3320989635699107	0.3538420792623322	0.09095927737151303	0.3681716136784433	0.2937885466895706	-0.13643307823646128	0.3563690649159794	0.25192769702226286	-0.01627869610167933	0.48659283457135366	0.33274253872301307	0.21368177600109928	0.5150561024192802	0.3261867472210961	0.457235425072844	0.4075384355819619	0.23716868633628294	0.6330721839484245	0.306089089155393	0.2500733056433208	0.6944181748353984	0.2973313093249583	0.25766549965696844	0.7156972507193484	0.33527905782870543	0.19951476058629491	0.7204394251365467	0.18547498685367253	0.35024567241252674	0.18116627271163047	0.15150621677958032	0.30143004116029515	0.44799621537734186	0.2837526647605361	0.21329522812913587	0.6079739098889576	0.3615325261441076	0.17816616310670436	0.6508443313278582	0.3657516018326206	0.1868729741521895	0.6907666664210481	0.3506993213776295	0.19919852936322574	0.7171782150930478
118	2.0	0.4257184544102147	0.3772564733932552	0.6540103116090104	0.3781810945789962	0.45995925061751625	1.086857608575092	0.35410878406812657	0.5293058537405795	1.488851206065936	0.3539595492468343	0.33974426853912687	1.508110027345762	0.42392538519743955	0.3622105794410701	1.5077724521728146	0.3207967104717716	0.627919927354527	1.565183292892957	0.23257879565778833	0.3684615955704884	0.6565717840535874	0.22837104569905442	0.38999994744057254	1.036494543195012	0.17654666922071172	0.5053036499824396	1.4684354975550746	0.19766756076852868	0.28837943985102293	1.470630100359144	0.1442740105934679	0.3419944423989122	1.485346023040951	0.18138160988245025	0.5861871602126162	1.5677513718496525	0.33209940190743387	0.3538594881704366	0.0909678762779691	0.3682413490491002	0.2936504985873178	-0.1364744964418969	0.35632630528641285	0.25187270276103296	-0.01582475368136913	0.4867598626428876	0.3328644621073059	0.21367263886732102	0.5164672679005345	0.33105252856002937	0.45804985940961357	0.407819392188032	0.23317973205811499	0.6307237591089115	0.3019823567069073	0.24698971834153524	0.6913562442625547	0.2929608320066849	0.2577832989178635	0.7126529403808768	0.33444123824027056	0.1979453530949245	0.7174659885002027	0.183996941468591	0.353480749892759	0.1815963317416819	0.15099920394839073	0.3022180134018923	0.448921199247353	0.2835429079879428	0.2139873295490503	0.6034737948145815	0.36053559615118835	0.17740542926436628	0.6494634327311185	0.3647692637307119	0.1843410168078918	0.6863412295957397	0.3507679484513794	0.19928203973265027	0.7144138910613881
119	2.016949152542373	0.42589061008576223	0.37753000101423245	0.6567228735338331	0.3782269386759	0.4600390741811184	1.0887229560630884	0.35405802752024895	0.5294596966201998	1.488977018605716	0.35394907790954194	0.33978629496140367	1.5081466069156557	0.42403094012675224	0.3622513617180887	1.5077931220633882	0.32080939364233746	0.6279025534123788	1.5646910620750232	0.2327573298565354	0.3683268252458495	0.6570247855458021	0.22855430022397555	0.38988057588426867	1.0375189414093327	0.17674309378709374	0.5058959244249461	1.4699485342053336	0.19773894694568236	0.28834587039062	1.4705964528140159	0.14427242817221694	0.3420374878892398	1.4853950727027563	0.1812430955781979	0.5859313261384498	1.5668541222977477	0.33210728814569695	0.35385973325417935	0.09094333207189897	0.3682339507920242	0.29321906610967463	-0.1364796060442963	0.3563296739834282	0.25191858588877114	-0.015806025888908202	0.48714501780139113	0.3331161992476922	0.2136622786941204	0.5180903483274832	0.3368342868807368	0.4595544455182176	0.4080837135432652	0.23004317802580934	0.6289133418959599	0.2987360883321942	0.24522770938881583	0.686979779679603	0.2906297175463328	0.25777791451624915	0.709021641598544	0.33349630982341266	0.19764538744707308	0.7137472473942561	0.18341435265080336	0.35474216529915087	0.18177320817655918	0.1495359907871717	0.3048868648620572	0.4490378090972435	0.28325987026827215	0.2143326522888936	0.5988201132294589	0.3588071415161007	0.17680049869987818	0.6480421713450255	0.3639545263895201	0.18190435481209136	0.6823719792141955	0.3507020904398872	0.19941254693029006	0.7109884902529495
120	2.0338983050847457	0.4260237675595717	0.37750629852214673	0.6578755722344327	0.37852382494610054	0.4606991094260107	1.090578768776911	0.3540352289924235	0.5295903271835585	1.4890457963176549	0.35395224378460904	0.33982853271589863	1.5081580988360055	0.4243066877248838	0.36231672531710635	1.5077797996653848	0.32061419401934754	0.6283995755871883	1.5636525857028543	0.2329868778086114	0.3685448799958345	0.6583246279620671	0.22876493539800313	0.39021425461782705	1.0386039190221692	0.17702011433759712	0.5067130364828769	1.4720062185740774	0.197811794277435	0.2883648439351278	1.4704856744488757	0.1442839760482551	0.34205574132640504	1.4854426566900298	0.18072364326258267	0.5842396395786172	1.5642199131600476	0.33212096236378685	0.3538528901032069	0.09095441852170592	0.3678429036403369	0.2925860883068738	-0.13645968104232475	0.356379118166295	0.25199494741659323	-0.016045888023895272	0.4877571778343109	0.3333941336479187	0.21366580097198282	0.5194060145491847	0.34195004853651545	0.46132679805781784	0.4082671448775508	0.22866756877350974	0.6280946532504859	0.29653889332361794	0.24415451054984388	0.6814395517166972	0.28995863278280537	0.2575226484752533	0.7052372404734275	0.332343507719657	0.19781021402395838	0.7099071674506456	0.18340594193821247	0.3547582098928995	0.18178204461639816	0.1475081891115551	0.30875618199479904	0.44865928619053014	0.28304706220558723	0.21431629366237456	0.595804315455233	0.35759650510098323	0.176288834977118	0.6463783641988852	0.3635419657474898	0.1805509751768165	0.6795665269902769	0.3504960039742047	0.19953121127985735	0.7078789579866183
121	2.0508474576271185	0.42661914801673606	0.3760521653675449	0.6575789651661039	0.3788121207122018	0.46125740126021963	1.0920096939207733	0.3540363628816994	0.5296308324417784	1.4890030402582262	0.35398027528775255	0.33989523364729235	1.508144933072445	0.42461837229049204	0.36239415464672964	1.5077295800495232	0.3203120224753953	0.629059157999881	1.5622019316419622	0.23320558878265943	0.3689259875554064	0.6606141106760973	0.22899097348032532	0.3908018271595557	1.0400445455949534	0.1772139262037594	0.5072895481598726	1.4735790312917165	0.19786764540528992	0.2883831291442476	1.4704361997263908	0.1442925147947011	0.3420362499776881	1.4854547053433096	0.1799312225528451	0.5804989012385592	1.5604020924523196	0.3321357585993764	0.35382663236072615	0.09101687937955379	0.36682344426951924	0.2921531365545801	-0.13646764818440815	0.35646703855489337	0.2522310145191647	-0.016888144524156972	0.48862749508126146	0.33365959918039806	0.21369524338689913	0.5201255453334387	0.3451179653481562	0.4626816571611315	0.4084216993040578	0.22832579133298223	0.6275500725583747	0.29516713359215774	0.24334132375579037	0.6760961829471668	0.2900096888964004	0.2571708545534197	0.7015353015172372	0.33091019164071744	0.1981144379400942	0.7064975633132133	0.18351894459769003	0.35452528963590424	0.1817515381276678	0.14587472359786072	0.3120787395018307	0.4487509559973104	0.2829988503648127	0.21418728349123736	0.5944123725675257	0.3577561212098969	0.17615068318231392	0.6444851780880336	0.36344066740809367	0.1804230105930396	0.6773969228585159	0.35027889368366216	0.19960211001262268	0.7061105109989751
